<?xml version="1.0" standalone="no"?>
<!DOCTYPE svg PUBLIC "-//W3C//DTD SVG 20010904//EN"
 "http://www.w3.org/TR/2001/REC-SVG-20010904/DTD/svg10.dtd">
<svg version="1.0" xmlns="http://www.w3.org/2000/svg"
 width="512.000000pt" height="512.000000pt" viewBox="0 0 512.000000 512.000000"
 preserveAspectRatio="xMidYMid meet">
<metadata>
Created by potrace 1.11, written by Peter Selinger 2001-2013
</metadata>
<g transform="translate(0.000000,512.000000) scale(0.100000,-0.100000)"
fill="#000000" stroke="none">
<path d="M2368 4463 c-151 -20 -294 -54 -408 -98 -311 -118 -538 -262 -755
-479 -121 -121 -194 -211 -277 -343 -197 -313 -289 -638 -283 -1008 2 -182 19
-310 60 -465 31 -115 29 -109 43 -143 7 -16 12 -32 12 -37 0 -5 20 -53 45
-106 25 -53 45 -98 45 -100 0 -12 140 -229 188 -293 63 -82 216 -241 302 -313
98 -81 247 -176 383 -243 73 -36 140 -65 148 -65 8 0 19 -4 25 -8 5 -5 29 -14
54 -21 25 -7 55 -17 67 -21 32 -13 180 -47 238 -55 28 -4 59 -10 70 -12 37 -9
379 -11 435 -3 147 21 150 22 260 50 369 94 695 303 980 626 40 45 111 142
162 219 51 77 168 306 168 327 0 8 4 18 9 24 13 14 68 188 90 284 26 118 39
201 46 298 l7 82 -961 0 -961 0 0 960 0 961 -50 -3 c-27 -2 -91 -9 -142 -15z"/>
<path d="M2773 3630 c0 -605 3 -850 11 -853 6 -2 390 -4 854 -4 l842 0 -6 51
c-51 419 -242 809 -543 1106 -136 135 -151 147 -284 237 -237 159 -574 285
-828 308 l-46 4 0 -849z"/>
</g>
</svg>
